<?xml version="1.0" encoding="UTF-8"?>
<svg xmlns="http://www.w3.org/2000/svg" width="680" height="617" viewBox="0 0 680 617" fill="none">
  <path d="M35.6459 362.32C35.6459 362.32 55.066 467.381 153.519 524.315C251.97 581.249 374.355 567.671 473.826 559.282C573.297 550.894 640.424 483.348 638.977 396.996C637.53 310.647 558.527 297.328 503.086 207.268C447.646 117.208 446.473 84.9957 351.111 38.9835C255.75 -7.02865 126.164 50.0272 70.7315 162.348C15.3008 274.671 35.6459 362.32 35.6459 362.32Z" fill="#F1FFF9"></path>
  <path opacity="0.9" d="M245.5 573C342.426 573 421 567.404 421 560.5C421 553.596 342.426 548 245.5 548C148.574 548 70 553.596 70 560.5C70 567.404 148.574 573 245.5 573Z" fill="#BAF1D9"></path>
  <path d="M592.538 515.746H261.79C253.973 515.746 247.636 509.409 247.636 501.592V65.1539C247.636 57.3367 253.973 51 261.79 51H592.538C600.355 51 606.692 57.3367 606.692 65.1539V501.592C606.692 509.409 600.355 515.746 592.538 515.746Z" stroke="#263238" stroke-width="1.0229" stroke-miterlimit="10" stroke-linecap="round" stroke-linejoin="round"></path>
  <path d="M398.391 178.717V180.163H396.943" stroke="#263238" stroke-width="1.0229" stroke-linecap="round" stroke-linejoin="round"></path>
  <path d="M394.088 180.163H309.878" stroke="#263238" stroke-width="1.0229" stroke-linecap="round" stroke-linejoin="round" stroke-dasharray="2.02 2.02"></path>
  <path d="M308.451 180.163H307.003V178.717" stroke="#263238" stroke-width="1.0229" stroke-linecap="round" stroke-linejoin="round"></path>
  <path d="M307.003 175.93V110.432" stroke="#263238" stroke-width="1.0229" stroke-linecap="round" stroke-linejoin="round" stroke-dasharray="1.97 1.97"></path>
  <path d="M307.003 109.04V107.592H308.451" stroke="#263238" stroke-width="1.0229" stroke-linecap="round" stroke-linejoin="round"></path>
  <path d="M311.305 107.592H395.516" stroke="#263238" stroke-width="1.0229" stroke-linecap="round" stroke-linejoin="round" stroke-dasharray="2.02 2.02"></path>
  <path d="M396.943 107.592H398.391V109.04" stroke="#263238" stroke-width="1.0229" stroke-linecap="round" stroke-linejoin="round"></path>
  <path d="M398.391 111.826V177.322" stroke="#263238" stroke-width="1.0229" stroke-linecap="round" stroke-linejoin="round" stroke-dasharray="1.97 1.97"></path>
  <path d="M383.799 119.178H321.594V168.577H383.799V119.178Z" fill="#79B3DC" stroke="#263238" stroke-width="1.0229" stroke-miterlimit="10" stroke-linecap="round" stroke-linejoin="round"></path>
  <path d="M317.936 115.519L296.59 99.054" stroke="#263238" stroke-width="1.0229" stroke-miterlimit="10" stroke-linecap="round" stroke-linejoin="round"></path>
  <path d="M388.068 171.015L406.364 186.872" stroke="#263238" stroke-width="1.0229" stroke-miterlimit="10" stroke-linecap="round" stroke-linejoin="round"></path>
  <path d="M295.751 104.481L295.114 97.4759H302.437" stroke="#263238" stroke-width="1.0229" stroke-miterlimit="10" stroke-linecap="round" stroke-linejoin="round"></path>
  <path d="M406.86 180.251L408.133 187.891L399.219 188.21" stroke="#263238" stroke-width="1.0229" stroke-miterlimit="10" stroke-linecap="round" stroke-linejoin="round"></path>
  <path d="M460.835 366.433H430.634V377.326H460.835V366.433Z" fill="#263238"></path>
  <path d="M473.104 371.88L453.739 360.699V383.061L473.104 371.88Z" fill="#263238"></path>
  <path d="M408.855 465.121H339.376C333.959 465.121 329.57 460.731 329.57 455.316V301.067C329.57 295.651 333.961 291.262 339.376 291.262H408.855C414.27 291.262 418.661 295.652 418.661 301.067V455.316C418.662 460.731 414.271 465.121 408.855 465.121Z" fill="#263238" stroke="#263238" stroke-width="0.8292" stroke-miterlimit="10" stroke-linecap="round" stroke-linejoin="round"></path>
  <path d="M414.699 303.069H333.532V454.803H414.699V303.069Z" fill="#FFEABB" stroke="#263238" stroke-width="0.8292" stroke-miterlimit="10" stroke-linecap="round" stroke-linejoin="round"></path>
  <path d="M399.655 489.078L405.867 464.986C406.536 462.388 406.876 459.716 406.876 457.034V428.14C406.984 427.772 407.06 427.391 407.06 426.994C407.06 424.471 404.754 422.426 401.908 422.426C400.416 422.426 399.084 422.997 398.143 423.894C397.92 421.554 395.733 419.71 393.035 419.71C391.202 419.71 389.603 420.565 388.69 421.843C388.426 419.539 386.258 417.736 383.59 417.736C381.756 417.736 380.156 418.59 379.243 419.87C379.236 416.041 379.177 397.716 378.601 396.224C376.727 391.391 367.322 393.599 368.963 398.727V426.156C368.963 426.156 368.963 440.656 368.963 441.109C368.963 438.136 366.755 434.218 365.833 431.333C364.969 428.633 364.368 425.693 362.662 423.264C359.745 419.11 354.614 421.396 354.901 425.734C355.153 429.537 357.905 432.535 359.394 435.987C362.144 442.366 360.492 449.03 363.088 455.425C363.818 457.225 368.661 465.035 370.249 467.17C371.855 469.33 373.573 475.007 373.573 475.007L371.167 489.078" fill="white"></path>
  <path d="M399.655 489.078L405.867 464.986C406.536 462.388 406.876 459.716 406.876 457.034V428.14C406.984 427.772 407.06 427.391 407.06 426.994C407.06 424.471 404.754 422.426 401.908 422.426C400.416 422.426 399.084 422.997 398.143 423.894C397.92 421.554 395.733 419.71 393.035 419.71C391.202 419.71 389.603 420.565 388.69 421.843C388.426 419.539 386.258 417.736 383.59 417.736C381.756 417.736 380.156 418.59 379.243 419.87C379.236 416.041 379.177 397.716 378.601 396.224C376.727 391.391 367.322 393.599 368.963 398.727V426.156C368.963 426.156 368.963 440.656 368.963 441.109C368.963 438.136 366.755 434.218 365.833 431.333C364.969 428.633 364.368 425.693 362.662 423.264C359.745 419.11 354.614 421.396 354.901 425.734C355.153 429.537 357.905 432.535 359.394 435.987C362.144 442.366 360.492 449.03 363.088 455.425C363.818 457.225 368.661 465.035 370.249 467.17C371.855 469.33 373.573 475.007 373.573 475.007L371.167 489.078" stroke="#263238" stroke-width="1.0229" stroke-miterlimit="10" stroke-linecap="round" stroke-linejoin="round"></path>
  <path d="M374.19 381.639V389.559" stroke="#263238" stroke-width="1.0229" stroke-miterlimit="10" stroke-linecap="round" stroke-linejoin="round"></path>
  <path d="M383.102 396.987H389.539" stroke="#263238" stroke-width="1.0229" stroke-miterlimit="10" stroke-linecap="round" stroke-linejoin="round"></path>
  <path d="M356.366 396.987H362.802" stroke="#263238" stroke-width="1.0229" stroke-miterlimit="10" stroke-linecap="round" stroke-linejoin="round"></path>
  <path d="M365.278 388.57L367.753 392.53" stroke="#263238" stroke-width="1.0229" stroke-miterlimit="10" stroke-linecap="round" stroke-linejoin="round"></path>
  <path d="M380.131 393.026L383.597 388.57" stroke="#263238" stroke-width="1.0229" stroke-miterlimit="10" stroke-linecap="round" stroke-linejoin="round"></path>
  <path d="M411.819 361.833H336.561V371.24H411.819V361.833Z" stroke="#263238" stroke-width="1.0229" stroke-miterlimit="10" stroke-linecap="round" stroke-linejoin="round"></path>
  <path d="M375.18 311.332H339.036V354.407H375.18V311.332Z" stroke="#263238" stroke-width="1.0229" stroke-miterlimit="10" stroke-linecap="round" stroke-linejoin="round"></path>
  <path d="M339.036 311.332L375.18 354.407" stroke="#263238" stroke-width="1.0229" stroke-miterlimit="10" stroke-linecap="round" stroke-linejoin="round"></path>
  <path d="M338.045 437.586V376.192H411.323V437.091" stroke="#263238" stroke-width="1.0229" stroke-miterlimit="10" stroke-linecap="round" stroke-linejoin="round"></path>
  <path d="M558.683 465.121H489.204C483.787 465.121 479.398 460.731 479.398 455.316V301.067C479.398 295.651 483.789 291.262 489.204 291.262H558.683C564.1 291.262 568.49 295.652 568.49 301.067V455.316C568.49 460.731 564.1 465.121 558.683 465.121Z" fill="#263238" stroke="#263238" stroke-width="0.8292" stroke-miterlimit="10" stroke-linecap="round" stroke-linejoin="round"></path>
  <path d="M564.527 303.069H483.36V454.803H564.527V303.069Z" fill="#96FFB6" stroke="#263238" stroke-width="0.8292" stroke-miterlimit="10" stroke-linecap="round" stroke-linejoin="round"></path>
  <path d="M560.85 310.341H487.572V390.55H560.85V310.341Z" stroke="white" stroke-width="1.0229" stroke-miterlimit="10" stroke-linecap="round" stroke-linejoin="round"></path>
  <path d="M487.572 397.977H560.85" stroke="white" stroke-width="1.0229" stroke-miterlimit="10" stroke-linecap="round" stroke-linejoin="round"></path>
  <path d="M487.572 403.918H560.85" stroke="white" stroke-width="1.0229" stroke-miterlimit="10" stroke-linecap="round" stroke-linejoin="round"></path>
  <path d="M487.572 409.86H560.85" stroke="white" stroke-width="1.0229" stroke-miterlimit="10" stroke-linecap="round" stroke-linejoin="round"></path>
  <path d="M487.572 415.801H560.85" stroke="white" stroke-width="1.0229" stroke-miterlimit="10" stroke-linecap="round" stroke-linejoin="round"></path>
  <path d="M487.572 421.742H560.85" stroke="white" stroke-width="1.0229" stroke-miterlimit="10" stroke-linecap="round" stroke-linejoin="round"></path>
  <path d="M487.572 427.684H560.85" stroke="white" stroke-width="1.0229" stroke-miterlimit="10" stroke-linecap="round" stroke-linejoin="round"></path>
  <path d="M487.572 433.625H560.85" stroke="white" stroke-width="1.0229" stroke-miterlimit="10" stroke-linecap="round" stroke-linejoin="round"></path>
  <path d="M487.572 390.55L560.85 310.341" stroke="white" stroke-width="1.0229" stroke-miterlimit="10" stroke-linecap="round" stroke-linejoin="round"></path>
  <path d="M558.683 265.542H489.204C483.787 265.542 479.398 261.152 479.398 255.737V101.488C479.398 96.0732 483.789 91.6812 489.204 91.6812H558.683C564.1 91.6812 568.49 96.0718 568.49 101.488V255.737C568.49 261.152 564.1 265.542 558.683 265.542Z" fill="#263238" stroke="#263238" stroke-width="0.8292" stroke-miterlimit="10" stroke-linecap="round" stroke-linejoin="round"></path>
  <path d="M564.527 103.488H483.36V255.223H564.527V103.488Z" fill="#DEBCFF" stroke="#263238" stroke-width="0.8292" stroke-miterlimit="10" stroke-linecap="round" stroke-linejoin="round"></path>
  <path d="M389.638 286.084V239.84H454.7" stroke="#263238" stroke-width="1.0229" stroke-linecap="round" stroke-linejoin="round"></path>
  <path d="M452.588 247.06L465.089 239.842L452.588 232.622V247.06Z" fill="#263238"></path>
  <path d="M522.286 284.868V249.376" stroke="#263238" stroke-width="1.0229" stroke-linecap="round" stroke-linejoin="round"></path>
  <path d="M529.504 251.489L522.286 238.987L515.067 251.489H529.504Z" fill="#263238"></path>
  <path d="M488.746 480.956H521.566" stroke="#263238" stroke-width="1.0229" stroke-miterlimit="10" stroke-linecap="round" stroke-linejoin="round"></path>
  <path d="M488.746 488.34H521.566" stroke="#263238" stroke-width="1.0229" stroke-miterlimit="10" stroke-linecap="round" stroke-linejoin="round"></path>
  <path d="M488.746 495.725H521.566" stroke="#263238" stroke-width="1.0229" stroke-miterlimit="10" stroke-linecap="round" stroke-linejoin="round"></path>
  <path d="M409.155 480.956H441.975" stroke="#263238" stroke-width="1.0229" stroke-miterlimit="10" stroke-linecap="round" stroke-linejoin="round"></path>
  <path d="M409.155 488.34H441.975" stroke="#263238" stroke-width="1.0229" stroke-miterlimit="10" stroke-linecap="round" stroke-linejoin="round"></path>
  <path d="M409.155 495.725H441.975" stroke="#263238" stroke-width="1.0229" stroke-miterlimit="10" stroke-linecap="round" stroke-linejoin="round"></path>
  <path d="M400.129 254.491H432.951" stroke="#263238" stroke-width="1.0229" stroke-miterlimit="10" stroke-linecap="round" stroke-linejoin="round"></path>
  <path d="M400.129 261.877H432.951" stroke="#263238" stroke-width="1.0229" stroke-miterlimit="10" stroke-linecap="round" stroke-linejoin="round"></path>
  <path d="M400.129 269.261H432.951" stroke="#263238" stroke-width="1.0229" stroke-miterlimit="10" stroke-linecap="round" stroke-linejoin="round"></path>
  <path d="M424.746 165.055H457.566" stroke="#263238" stroke-width="1.0229" stroke-miterlimit="10" stroke-linecap="round" stroke-linejoin="round"></path>
  <path d="M424.746 172.439H457.566" stroke="#263238" stroke-width="1.0229" stroke-miterlimit="10" stroke-linecap="round" stroke-linejoin="round"></path>
  <path d="M424.746 179.825H457.566" stroke="#263238" stroke-width="1.0229" stroke-miterlimit="10" stroke-linecap="round" stroke-linejoin="round"></path>
  <path d="M306.59 190.491H339.411" stroke="#263238" stroke-width="1.0229" stroke-miterlimit="10" stroke-linecap="round" stroke-linejoin="round"></path>
  <path d="M306.59 197.875H339.411" stroke="#263238" stroke-width="1.0229" stroke-miterlimit="10" stroke-linecap="round" stroke-linejoin="round"></path>
  <path d="M306.59 205.261H339.411" stroke="#263238" stroke-width="1.0229" stroke-miterlimit="10" stroke-linecap="round" stroke-linejoin="round"></path>
  <path d="M146.461 299.454C146.461 299.454 146.461 293.33 137.886 284.755C129.312 276.181 123.799 271.281 123.799 271.281C123.799 271.281 119.512 285.368 127.473 293.942C135.435 302.517 146.461 310.48 146.461 310.48V299.454Z" fill="#3CC065"></path>
  <path d="M134.017 337.706C134.017 337.706 134.017 331.582 125.442 323.006C116.868 314.432 111.355 309.532 111.355 309.532C111.355 309.532 107.068 323.619 115.029 332.193C122.992 340.768 134.017 348.731 134.017 348.731V337.706Z" fill="#3CC065"></path>
  <path d="M145.922 309.887C145.922 309.887 146.569 303.796 156.002 296.176C165.434 288.555 171.434 284.265 171.434 284.265C171.434 284.265 174.208 298.726 165.385 306.412C156.561 314.098 144.757 320.85 144.757 320.85L145.922 309.887Z" fill="#3CC065"></path>
  <path d="M130.889 355.06C130.889 355.06 132.173 349.072 142.353 342.483C152.534 335.895 158.952 332.26 158.952 332.26C158.952 332.26 160.192 346.933 150.609 353.649C141.027 360.365 128.579 365.841 128.579 365.841L130.889 355.06Z" fill="#3CC065"></path>
  <path d="M133.714 404.313C133.714 404.313 133.714 398.189 142.288 389.613C150.863 381.039 156.376 376.138 156.376 376.138C156.376 376.138 160.663 390.226 152.7 398.8C144.738 407.375 133.712 415.338 133.712 415.338L133.714 404.313Z" fill="#3CC065"></path>
  <path d="M133.571 416.336C133.571 416.336 134.441 410.272 127.172 400.567C119.902 390.86 115.142 385.227 115.142 385.227C115.142 385.227 108.896 398.561 115.56 408.18C122.222 417.799 132.004 427.248 132.004 427.248L133.571 416.336Z" fill="#3CC065"></path>
  <path d="M125.117 451.964C125.117 451.964 125.117 445.84 133.691 437.265C142.266 428.691 147.779 423.791 147.779 423.791C147.779 423.791 152.066 437.878 144.104 446.452C136.141 455.027 125.117 462.99 125.117 462.99V451.964Z" fill="#3CC065"></path>
  <path d="M130.842 484.267C130.842 484.267 129.291 478.343 135.414 467.876C141.537 457.409 145.629 451.273 145.629 451.273C145.629 451.273 153.344 463.815 147.813 474.128C142.281 484.439 133.633 494.934 133.633 494.934L130.842 484.267Z" fill="#3CC065"></path>
  <path d="M147.238 297.884C146.735 304.432 145.992 311.204 144.89 316.901C141.5 334.414 133.026 345.713 129.636 361.532C126.246 377.35 135.977 397.729 133.371 418.045C130.765 438.362 122.856 449.661 125.117 463.221C127.376 476.779 139.239 513.5 139.239 513.5" stroke="#263238" stroke-width="1.0348" stroke-miterlimit="10" stroke-linecap="round" stroke-linejoin="round"></path>
  <path d="M145.837 313.957L155.078 306.866" stroke="#263238" stroke-width="1.0348" stroke-miterlimit="10" stroke-linecap="round" stroke-linejoin="round"></path>
  <path d="M146.267 305.791L142.399 298.915" stroke="#263238" stroke-width="1.0348" stroke-miterlimit="10" stroke-linecap="round" stroke-linejoin="round"></path>
  <path d="M130.15 360.806C130.15 360.806 137.886 355.002 145.838 349.201" stroke="#263238" stroke-width="1.0348" stroke-miterlimit="10" stroke-linecap="round" stroke-linejoin="round"></path>
  <path d="M134.017 348.731C134.017 348.731 127.571 336.093 120.265 327.711" stroke="#263238" stroke-width="1.0348" stroke-miterlimit="10" stroke-linecap="round" stroke-linejoin="round"></path>
  <path d="M134.018 413.026C134.018 413.026 140.035 401.207 150.565 390.891" stroke="#263238" stroke-width="1.0348" stroke-miterlimit="10" stroke-linecap="round" stroke-linejoin="round"></path>
  <path d="M132.514 421.624C132.514 421.624 128.645 412.383 124.133 405.72C119.619 399.058 118.975 398.199 118.975 398.199" stroke="#263238" stroke-width="1.0348" stroke-miterlimit="10" stroke-linecap="round" stroke-linejoin="round"></path>
  <path d="M125.117 463.221C125.117 463.221 128.215 455.362 132.084 449.13C135.952 442.898 141.109 437.31 141.109 437.31" stroke="#263238" stroke-width="1.0348" stroke-miterlimit="10" stroke-linecap="round" stroke-linejoin="round"></path>
  <path d="M133.635 494.932C133.635 494.932 132.729 487.598 135.953 481.366C139.176 475.134 142.83 466.967 144.334 463.744" stroke="#263238" stroke-width="1.0348" stroke-miterlimit="10" stroke-linecap="round" stroke-linejoin="round"></path>
  <path d="M90.3107 381.279C90.3107 381.279 89.6454 377.438 94.0912 371.131C98.5384 364.822 101.463 361.152 101.463 361.152C101.463 361.152 105.68 369.52 101.618 375.762C97.5561 382.004 91.5067 388.193 91.5067 388.193L90.3107 381.279Z" fill="#3CC065"></path>
  <path d="M102.266 403.914C102.266 403.914 101.601 400.073 106.048 393.766C110.494 387.457 113.42 383.787 113.42 383.787C113.42 383.787 117.638 392.155 113.575 398.397C109.513 404.639 103.464 410.828 103.464 410.828L102.266 403.914Z" fill="#3CC065"></path>
  <path d="M91.7799 387.762C91.7799 387.762 90.7127 384.012 83.9712 380.257C77.2282 376.502 73.0004 374.463 73.0004 374.463C73.0004 374.463 72.8306 383.833 79.197 387.694C85.5649 391.555 93.7006 394.509 93.7006 394.509L91.7799 387.762Z" fill="#3CC065"></path>
  <path d="M106.112 414.457C106.112 414.457 104.657 410.841 97.5575 407.815C90.4579 404.789 86.0391 403.205 86.0391 403.205C86.0391 403.205 86.8543 412.541 93.5916 415.711C100.329 418.883 108.731 420.965 108.731 420.965L106.112 414.457Z" fill="#3CC065"></path>
  <path d="M109.686 445.65C109.686 445.65 109.021 441.81 102.714 437.363C96.4055 432.917 92.4169 430.443 92.4169 430.443C92.4169 430.443 91.2577 439.742 97.1811 444.254C103.105 448.767 110.884 452.563 110.884 452.563L109.686 445.65Z" fill="#3CC065"></path>
  <path d="M111.082 453.174C111.082 453.174 109.877 449.466 113.383 442.591C116.888 435.715 119.261 431.666 119.261 431.666C119.261 431.666 124.626 439.35 121.492 446.106C118.358 452.861 113.25 459.848 113.25 459.848L111.082 453.174Z" fill="#3CC065"></path>
  <path d="M121.844 484.154C121.844 484.154 122.289 480.282 128.332 475.482C134.376 470.684 138.218 467.985 138.218 467.985C138.218 467.985 139.906 477.203 134.249 482.047C128.593 486.89 121.043 491.124 121.043 491.124L121.844 484.154Z" fill="#3CC065"></path>
  <path d="M120.252 474.597C120.252 474.597 119.587 470.756 113.28 466.31C106.971 461.865 102.983 459.39 102.983 459.39C102.983 459.39 101.824 468.69 107.747 473.202C113.67 477.714 121.448 481.51 121.448 481.51L120.252 474.597Z" fill="#3CC065"></path>
  <path d="M120.167 495.476C120.167 495.476 120.497 491.592 115.52 485.693C110.544 479.793 107.313 476.391 107.313 476.391C107.313 476.391 103.836 485.093 108.424 490.959C113.011 496.825 119.574 502.468 119.574 502.468L120.167 495.476Z" fill="#3CC065"></path>
  <path d="M89.6526 380.379C90.6773 384.43 91.8804 388.597 93.1897 392.049C97.2165 402.663 103.757 408.828 107.6 418.379C111.443 427.931 107.553 441.766 111.392 454.224C115.232 466.681 121.417 472.909 121.472 481.656C121.527 490.403 118.074 514.718 118.074 514.718" stroke="#263238" stroke-width="1.0348" stroke-miterlimit="10" stroke-linecap="round" stroke-linejoin="round"></path>
  <path d="M92.2755 390.305L85.7109 386.862" stroke="#263238" stroke-width="1.0348" stroke-miterlimit="10" stroke-linecap="round" stroke-linejoin="round"></path>
  <path d="M91.1189 385.231L92.799 380.499" stroke="#263238" stroke-width="1.0348" stroke-miterlimit="10" stroke-linecap="round" stroke-linejoin="round"></path>
  <path d="M107.199 417.98C107.199 417.98 101.717 415.182 96.1025 412.407" stroke="#263238" stroke-width="1.0348" stroke-miterlimit="10" stroke-linecap="round" stroke-linejoin="round"></path>
  <path d="M103.464 410.828C103.464 410.828 106.134 402.203 109.806 396.155" stroke="#263238" stroke-width="1.0348" stroke-miterlimit="10" stroke-linecap="round" stroke-linejoin="round"></path>
  <path d="M110.442 451.147C110.442 451.147 105.385 444.389 97.6624 439.063" stroke="#263238" stroke-width="1.0348" stroke-miterlimit="10" stroke-linecap="round" stroke-linejoin="round"></path>
  <path d="M112.319 456.374C112.319 456.374 113.741 450.159 115.847 445.493C117.955 440.825 118.265 440.216 118.265 440.216" stroke="#263238" stroke-width="1.0348" stroke-miterlimit="10" stroke-linecap="round" stroke-linejoin="round"></path>
  <path d="M121.176 488.291C121.176 488.291 125.527 482.958 128.235 480.963C130.942 478.967 132.819 476.977 132.819 476.977" stroke="#263238" stroke-width="1.0348" stroke-miterlimit="10" stroke-linecap="round" stroke-linejoin="round"></path>
  <path d="M121.473 481.656C121.473 481.656 118.677 477.064 115.574 473.577C112.472 470.089 108.632 467.145 108.632 467.145" stroke="#263238" stroke-width="1.0348" stroke-miterlimit="10" stroke-linecap="round" stroke-linejoin="round"></path>
  <path d="M119.574 502.467C119.574 502.467 119.346 497.769 116.648 494.211C113.951 490.652 110.773 485.928 109.479 484.071" stroke="#263238" stroke-width="1.0348" stroke-miterlimit="10" stroke-linecap="round" stroke-linejoin="round"></path>
  <path d="M152.344 556.969H104.861C102.483 556.969 100.557 555.041 100.557 552.665V510.479H156.649V552.665C156.649 555.041 154.722 556.969 152.344 556.969Z" fill="#263238"></path>
  <path d="M156.161 517.795H100.557C98.1323 517.795 96.1677 515.831 96.1677 513.406C96.1677 510.982 98.1323 509.017 100.557 509.017H156.161C158.585 509.017 160.551 510.982 160.551 513.406C160.551 515.829 158.585 517.795 156.161 517.795Z" fill="#263238"></path>
  <path d="M173.529 542.87C173.529 542.87 170.484 554.58 170.484 557.545C170.484 560.51 169.743 562.488 176.167 563.723C182.592 564.959 186.793 564.217 187.78 561.252C188.768 558.287 189.51 543.461 189.51 543.461L173.942 540.495L173.529 542.87Z" fill="#044F1B" stroke="#263238" stroke-width="1.0348" stroke-miterlimit="10" stroke-linecap="round" stroke-linejoin="round"></path>
  <path d="M187.781 561.252C187.929 560.808 188.071 560.076 188.205 559.188C181.59 559.401 173.702 558.302 170.48 557.791C170.446 560.619 169.924 562.523 176.166 563.723C182.592 564.959 186.793 564.217 187.781 561.252Z" fill="white" stroke="#263238" stroke-width="1.0348" stroke-miterlimit="10" stroke-linecap="round" stroke-linejoin="round"></path>
  <path d="M323.685 543.956C323.685 543.956 328.628 545.686 335.793 547.909C342.959 550.133 357.537 552.604 359.019 552.852C360.503 553.1 360.503 556.065 359.266 557.3C358.03 558.536 351.605 562.243 343.945 564.219C336.285 566.196 310.34 567.926 308.116 566.442C306.255 565.201 306.88 553.099 307.622 550.381C308.365 547.662 323.685 543.956 323.685 543.956Z" fill="#044F1B" stroke="#263238" stroke-width="1.0348" stroke-miterlimit="10" stroke-linecap="round" stroke-linejoin="round"></path>
  <path d="M359.268 557.299C360.096 556.471 360.354 554.88 359.999 553.837C354.995 557.834 344.991 562.21 334.806 563.229C324.587 564.251 311.354 563.416 307.074 563.095C307.254 564.791 307.58 566.08 308.12 566.441C310.344 567.924 336.289 566.193 343.949 564.217C351.608 562.24 358.033 558.535 359.268 557.299Z" fill="white" stroke="#263238" stroke-width="1.0348" stroke-miterlimit="10" stroke-linecap="round" stroke-linejoin="round"></path>
  <path d="M204.149 328.528C204.149 328.528 199.844 354.364 203.193 368.718C203.193 368.718 196.973 425.653 196.017 451.01C196.017 451.01 182.62 495.506 180.706 509.381C178.793 523.256 173.53 542.872 173.53 542.872C173.53 542.872 176.401 544.785 183.1 546.221C189.797 547.656 190.756 542.393 190.756 542.393C190.756 542.393 227.595 457.709 230.466 445.269C233.336 432.829 242.906 388.334 242.906 388.334L282.617 461.058C282.617 461.058 284.531 485.938 290.272 500.29C296.013 514.643 307.017 554.354 307.017 554.354C307.017 554.354 314.193 554.832 319.936 552.918C325.677 551.005 325.677 548.134 325.677 548.134C325.677 548.134 317.064 516.078 317.064 505.552C317.064 495.026 313.715 459.143 311.323 449.095C308.931 439.047 292.664 386.419 290.272 380.678C287.88 374.937 282.617 356.756 282.617 356.756L279.269 328.528C279.264 328.528 238.119 340.011 204.149 328.528Z" fill="#263238" stroke="#263238" stroke-width="1.0348" stroke-miterlimit="10" stroke-linecap="round" stroke-linejoin="round"></path>
  <path d="M234.508 206.581C234.508 206.581 232.31 201.819 232.31 198.887C232.31 195.956 230.845 182.034 230.845 182.034C230.845 182.034 252.094 143.565 257.957 136.238C263.818 128.91 270.78 123.414 270.78 123.414C270.78 123.414 285.069 120.483 288 120.483C290.931 120.483 294.228 119.018 294.228 117.185C294.228 115.354 289.465 115.72 286.534 115.72C283.603 115.72 279.939 113.156 279.939 113.156C279.939 113.156 284.712 99.4985 286.167 94.1044C286.937 91.2524 289.464 85.312 287.632 85.312C285.801 85.312 285.434 86.7769 284.334 88.9764C283.235 91.1745 278.472 98.502 278.472 98.502L279.571 82.3821C279.571 82.3821 278.107 80.184 277.007 82.7487C275.907 85.3134 273.709 93.0075 273.342 94.839C272.976 96.6705 271.509 98.3279 271.509 98.3279L270.043 86.2999C270.043 86.2999 267.549 83.6602 267.115 88.2433C266.873 90.7966 267.115 99.2338 267.115 100.7C267.115 102.165 265.643 98.6195 265.643 98.6195C265.643 98.6195 264.778 94.6408 263.817 94.1044C262.708 93.4859 261.985 94.8376 262.352 97.7674C262.718 100.699 261.985 112.789 261.985 112.789C261.985 112.789 259.787 115.72 256.489 119.75C253.191 123.78 226.813 147.594 216.921 155.288C207.028 162.982 205.93 169.209 204.464 176.904C202.999 184.598 201.532 229.294 201.532 245.416C201.532 261.537 202.997 287.182 204.097 295.608C205.195 304.034 203.364 315.026 201.899 320.889C200.434 326.751 201.899 331.879 205.929 334.81C209.958 337.742 227.178 339.573 241.466 339.573C255.755 339.573 270.41 338.108 274.806 336.642C279.202 335.177 282.5 334.81 282.5 328.948C282.5 323.085 279.569 311.362 279.569 308.065C279.569 304.767 285.431 270.695 285.431 270.695C285.431 270.695 322.802 282.052 329.763 279.487C336.724 276.922 394.977 221.967 394.977 221.967C394.977 221.967 404.136 218.302 408.899 217.571C413.662 216.837 420.989 213.541 421.356 212.441C421.722 211.341 420.623 211.708 417.693 211.708C414.761 211.708 409.999 213.173 409.999 213.173C409.999 213.173 420.003 206.84 421.722 206.212C422.913 205.778 424.972 203.067 422.089 203.647C418.48 204.373 409.632 206.945 409.632 206.945L421.356 199.618C421.356 199.618 423.187 196.686 420.989 196.686C418.791 196.686 407.799 203.281 407.799 203.281L416.355 195.336C418.011 193.799 416.63 191.639 414.675 192.771C414.64 192.793 404.848 198.385 404.813 198.408C401.148 200.606 397.175 201.816 397.175 201.816L395.344 202.916C395.344 202.916 396.077 198.886 396.077 197.054C396.077 195.223 394.977 190.46 392.412 190.094C389.848 189.727 392.046 193.391 392.046 195.223C392.046 197.054 388.381 206.58 388.381 208.046C388.381 209.511 388.381 212.443 388.381 212.443C388.381 212.443 375.924 223.435 364.567 229.296C353.21 235.157 327.563 254.575 327.563 254.575C327.563 254.575 298.253 239.553 291.659 234.059C285.065 228.563 277.737 221.968 270.41 216.106C263.082 210.243 258.319 207.678 258.319 207.678L234.508 206.581Z" fill="#FFBE9D" stroke="#263238" stroke-width="1.0348" stroke-miterlimit="10" stroke-linecap="round" stroke-linejoin="round"></path>
  <path d="M356.94 233.805C344.499 241.757 327.566 254.576 327.566 254.576C327.566 254.576 298.256 239.554 291.662 234.06C285.068 228.564 277.74 221.97 270.413 216.107C263.085 210.244 258.323 207.68 258.323 207.68L234.509 206.58C234.509 206.58 232.31 201.817 232.31 198.886C232.31 195.955 230.845 182.033 230.845 182.033C230.845 182.033 241.818 162.171 250.168 148.271C249.945 148.045 249.73 147.821 249.502 147.592C245.407 143.499 239.729 141.292 234.766 140.092C227.865 146.219 220.997 152.121 216.924 155.289C207.031 162.983 205.932 169.211 204.467 176.905C203 184.599 201.536 229.297 201.536 245.417C201.536 261.537 203 287.184 204.1 295.61C205.2 304.036 203.367 315.027 201.902 320.89C200.437 326.751 201.902 331.881 205.932 334.812C209.961 337.743 227.181 339.575 241.469 339.575C255.758 339.575 270.413 338.11 274.809 336.643C279.205 335.178 282.503 334.812 282.503 328.949C282.503 323.087 279.572 311.363 279.572 308.067C279.572 304.769 285.433 270.696 285.433 270.696C285.433 270.696 322.804 282.053 329.765 279.488C333.484 278.118 351.845 261.792 368.14 246.882C364.811 241.158 360.575 236.827 356.94 233.805Z" fill="#43BBE8" stroke="#263238" stroke-width="1.0348" stroke-miterlimit="10" stroke-linecap="round" stroke-linejoin="round"></path>
  <path d="M274.067 222.639C274.067 222.639 259.326 226.659 258.433 237.826" stroke="#263238" stroke-width="1.0348" stroke-miterlimit="10" stroke-linecap="round" stroke-linejoin="round"></path>
  <path d="M285.433 270.696C285.433 270.696 268.26 265.969 259.326 257.035" stroke="#263238" stroke-width="1.0348" stroke-miterlimit="10" stroke-linecap="round" stroke-linejoin="round"></path>
  <path d="M275.855 268.202C275.855 268.202 261.114 272.222 247.713 266.862" stroke="#263238" stroke-width="1.0348" stroke-miterlimit="10" stroke-linecap="round" stroke-linejoin="round"></path>
  <path d="M213.641 244.531C213.641 244.531 218.287 277.047 240.738 293.304" stroke="#263238" stroke-width="1.0348" stroke-miterlimit="10" stroke-linecap="round" stroke-linejoin="round"></path>
  <path d="M247.826 302.163C249.529 302.637 251.295 303.043 253.125 303.369" stroke="#263238" stroke-width="1.0348" stroke-miterlimit="10" stroke-linecap="round" stroke-linejoin="round"></path>
  <path d="M213.641 277.047C213.641 277.047 221.95 290.828 238.756 298.777" stroke="#263238" stroke-width="1.0348" stroke-miterlimit="10" stroke-linecap="round" stroke-linejoin="round"></path>
  <path d="M209.296 204.771C209.296 204.771 223.59 197.623 232.078 204.324" stroke="#263238" stroke-width="1.0348" stroke-miterlimit="10" stroke-linecap="round" stroke-linejoin="round"></path>
  <path d="M213.317 172.162C213.317 172.162 226.271 176.629 229.845 185.563" stroke="#263238" stroke-width="1.0348" stroke-miterlimit="10" stroke-linecap="round" stroke-linejoin="round"></path>
  <path d="M221.804 169.035C221.804 169.035 226.271 172.162 228.057 178.862" stroke="#263238" stroke-width="1.0348" stroke-miterlimit="10" stroke-linecap="round" stroke-linejoin="round"></path>
  <path d="M282.87 147.962C282.87 147.962 285.068 160.418 285.068 163.716C285.068 167.014 281.403 168.112 282.87 172.509C284.336 176.905 287.632 177.271 286.899 180.936C286.166 184.599 281.403 186.798 281.403 186.798C281.403 186.798 278.839 197.057 276.274 201.453C273.709 205.85 264.184 202.553 264.184 202.553L263.45 214.277C263.45 214.277 260.153 219.04 248.062 217.575C235.972 216.11 227.911 212.079 227.911 212.079L226.08 209.514C226.08 209.514 235.605 204.751 235.972 201.453C236.339 198.157 235.972 190.463 235.972 179.471C235.972 168.479 232.674 147.23 250.627 141.734C268.58 136.238 282.87 147.962 282.87 147.962Z" fill="#FFBE9D" stroke="#263238" stroke-width="1.0348" stroke-miterlimit="10" stroke-linecap="round" stroke-linejoin="round"></path>
  <path d="M260.49 178.037C260.49 178.037 256.354 168.548 251.727 173.975C248.721 177.501 252.46 187.897 254.292 189.363C256.123 190.828 260.154 190.096 260.154 190.096C260.154 190.096 254.292 195.957 248.064 195.957C241.836 195.957 236.34 190.096 232.31 179.838C228.281 169.579 225.35 151.993 229.746 141.369C234.142 130.743 256.858 130.378 261.987 130.378C267.116 130.378 274.811 133.309 274.811 133.309C274.811 133.309 291.297 131.844 291.664 137.339C292.03 142.835 289.465 143.2 289.465 143.2C289.465 143.2 301.189 149.428 295.693 151.993C290.197 154.557 281.771 153.092 276.275 153.092C270.779 153.092 268.948 157.122 268.948 157.122C268.948 157.122 274.077 160.42 272.246 161.885C270.414 163.35 263.819 166.281 263.087 168.846C262.354 171.41 265.652 175.44 263.453 177.273C261.252 179.103 260.49 178.037 260.49 178.037Z" fill="#263238" stroke="#263238" stroke-width="1.0348" stroke-miterlimit="10" stroke-linecap="round" stroke-linejoin="round"></path>
  <path d="M280.863 173.61C280.863 175.477 280.096 176.991 279.149 176.991C278.202 176.991 277.435 175.478 277.435 173.61C277.435 171.743 278.202 170.23 279.149 170.23C280.096 170.23 280.863 171.743 280.863 173.61Z" fill="#263238"></path>
  <path d="M274.868 169.291C274.868 169.291 277.238 163.764 280.989 166.725" stroke="#263238" stroke-width="1.0348" stroke-miterlimit="10" stroke-linecap="round" stroke-linejoin="round"></path>
  <path d="M242.903 388.332L239.554 382.113L222.809 377.807" stroke="white" stroke-width="1.0348" stroke-miterlimit="10" stroke-linecap="round" stroke-linejoin="round"></path>
</svg>
